<?xml version="1.0" encoding="UTF-8"?>
<svg xmlns="http://www.w3.org/2000/svg" xmlns:xlink="http://www.w3.org/1999/xlink" width="318.75pt" height="262.499992pt" viewBox="0 0 318.75 262.499992" version="1.2">
<defs>
<clipPath id="clip1">
  <path d="M 36 5 L 290.507812 5 L 290.507812 260 L 36 260 Z M 36 5 "/>
</clipPath>
</defs>
<g id="surface1">
<g clip-path="url(#clip1)" clip-rule="nonzero">
<path style=" stroke:none;fill-rule:nonzero;fill:rgb(53.329468%,59.999084%,65.098572%);fill-opacity:1;" d="M 277.449219 52.308594 L 257.019531 72.742188 C 257.019531 72.742188 243.390625 79.554688 229.769531 65.925781 C 216.144531 52.308594 222.953125 38.679688 222.953125 38.679688 L 243.390625 18.242188 C 250.207031 11.433594 242.019531 5.1875 235.871094 5.1875 C 205.691406 5.1875 181.230469 29.648438 181.230469 59.824219 C 181.230469 64.0625 181.765625 68.175781 182.675781 72.140625 L 136.488281 118.328125 L 177.355469 159.195312 L 223.542969 113.015625 C 227.511719 113.921875 231.617188 114.460938 235.867188 114.460938 C 266.039062 114.460938 290.5 90 290.5 59.824219 C 290.507812 53.640625 284.257812 45.496094 277.449219 52.308594 Z M 135.683594 119.660156 L 44.867188 210.46875 C 33.730469 221.617188 33.730469 239.683594 44.867188 250.828125 C 56.019531 261.96875 74.082031 261.96875 85.226562 250.828125 L 176.027344 160.019531 Z M 65.222656 242.402344 C 59.121094 242.402344 54.179688 237.457031 54.179688 231.359375 C 54.179688 225.265625 59.128906 220.3125 65.222656 220.3125 C 71.324219 220.3125 76.265625 225.257812 76.265625 231.359375 C 76.265625 237.457031 71.324219 242.402344 65.222656 242.402344 Z M 65.222656 242.402344 "/>
</g>
<path style=" stroke:none;fill-rule:nonzero;fill:rgb(100%,78.819275%,27.839661%);fill-opacity:1;" d="M 251.988281 253.140625 C 260.675781 261.828125 274.503906 262.238281 282.691406 254.042969 C 290.886719 245.84375 290.480469 232.023438 281.792969 223.335938 L 108.453125 49.996094 C 99.757812 41.300781 85.941406 40.898438 77.746094 49.09375 C 69.550781 57.292969 69.960938 71.113281 78.648438 79.800781 Z M 251.988281 253.140625 "/>
<path style=" stroke:none;fill-rule:nonzero;fill:rgb(39.99939%,45.878601%,49.798584%);fill-opacity:1;" d="M 182.058594 11.84375 C 182.058594 11.84375 137.351562 -10.511719 100.097656 26.742188 L 47.945312 78.898438 C 47.945312 78.898438 40.492188 71.449219 33.042969 78.898438 L 25.59375 86.347656 C 25.59375 86.347656 18.140625 93.800781 25.59375 101.25 L 55.394531 131.054688 C 55.394531 131.054688 62.847656 138.503906 70.296875 131.054688 L 77.746094 123.601562 C 77.746094 123.601562 85.199219 116.152344 77.746094 108.699219 L 77.167969 108.121094 C 82.902344 102.582031 91.492188 96.945312 100.097656 101.25 L 129.902344 71.449219 C 129.902344 71.449219 122.453125 49.09375 137.351562 34.195312 C 152.253906 19.292969 159.703125 19.292969 174.605469 19.292969 C 189.507812 19.292969 182.058594 11.84375 182.058594 11.84375 Z M 182.058594 11.84375 "/>
</g>
</svg>
