<?xml version="1.0" encoding="UTF-8"?><svg xmlns="http://www.w3.org/2000/svg" xmlns:xlink="http://www.w3.org/1999/xlink" width="318.75" zoomAndPan="magnify" viewBox="0 0 318.75 262.499992" height="262.499992" preserveAspectRatio="xMidYMid meet" version="1.0"><defs><clipPath id="clip-0"><path d="M 0.179688 9.117188 L 318.320312 9.117188 L 318.320312 253.34375 L 0.179688 253.34375 Z M 0.179688 9.117188 " clip-rule="nonzero"/></clipPath><clipPath id="clip-1"><path d="M 0.179688 51 L 160 51 L 160 253.34375 L 0.179688 253.34375 Z M 0.179688 51 " clip-rule="nonzero"/></clipPath><clipPath id="clip-2"><path d="M 0.179688 9.117188 L 318.320312 9.117188 L 318.320312 95 L 0.179688 95 Z M 0.179688 9.117188 " clip-rule="nonzero"/></clipPath></defs><g clip-path="url(#clip-0)"><path fill="rgb(87.449646%, 69.799805%, 54.508972%)" d="M 159.375 253.34375 L 318.484375 210.871094 L 318.484375 51.59375 L 159.375 9.117188 L 0.265625 51.59375 L 0.265625 210.871094 L 159.375 253.34375 " fill-opacity="1" fill-rule="nonzero"/></g><g clip-path="url(#clip-1)"><path fill="rgb(94.119263%, 81.568909%, 70.588684%)" d="M 0.265625 51.59375 L 159.375 94.066406 L 159.375 253.34375 L 0.265625 210.871094 L 0.265625 51.59375 " fill-opacity="1" fill-rule="nonzero"/></g><g clip-path="url(#clip-2)"><path fill="rgb(81.17981%, 61.959839%, 46.269226%)" d="M 159.375 94.066406 L 318.484375 51.59375 L 159.375 9.117188 L 0.265625 51.59375 L 159.375 94.066406 " fill-opacity="1" fill-rule="nonzero"/></g><path fill="rgb(81.17981%, 61.959839%, 46.269226%)" d="M 47.996094 64.328125 L 47.996094 99.375 L 106.339844 115.304688 L 106.339844 79.902344 L 47.996094 64.328125 " fill-opacity="1" fill-rule="nonzero"/><path fill="rgb(81.17981%, 61.959839%, 46.269226%)" d="M 47.996094 223.605469 L 106.339844 239.179688 L 106.339844 200.253906 L 47.996094 184.324219 L 47.996094 223.605469 " fill-opacity="1" fill-rule="nonzero"/><path fill="rgb(69.799805%, 47.44873%, 27.449036%)" d="M 48.703125 64.511719 L 105.074219 79.570312 L 264.765625 37.242188 L 208.390625 22.207031 L 48.703125 64.511719 " fill-opacity="1" fill-rule="nonzero"/><path fill="rgb(98.81897%, 84.309387%, 43.919373%)" d="M 302.574219 200.253906 L 291.96875 200.253906 L 291.96875 189.632812 L 302.574219 189.632812 L 302.574219 200.253906 " fill-opacity="1" fill-rule="nonzero"/><path fill="rgb(98.81897%, 84.309387%, 43.919373%)" d="M 281.359375 205.5625 L 270.753906 205.5625 L 270.753906 194.941406 L 281.359375 194.941406 L 281.359375 205.5625 " fill-opacity="1" fill-rule="nonzero"/><path fill="rgb(98.81897%, 84.309387%, 43.919373%)" d="M 260.144531 210.871094 L 249.539062 210.871094 L 249.539062 200.253906 L 260.144531 200.253906 L 260.144531 210.871094 " fill-opacity="1" fill-rule="nonzero"/></svg>